<svg id="Full_Logo_white_with_tagline" xmlns="http://www.w3.org/2000/svg" width="271.148" height="55.869" viewBox="0 0 271.148 55.869">
  <defs>
    <clipPath id="clip-path">
      <rect id="Rectangle_37" width="271.148" height="55.869" fill="none"/>
    </clipPath>
    <clipPath id="clip-path-2">
      <path id="Path_48" d="M310.414,2.8V19.35H293.825v.675h16.589v16.55h.676V20.025h16.589V19.35H311.09V2.8Z" transform="translate(-293.825 -2.8)" fill="none"/>
    </clipPath>
  </defs>
  <g id="Group_42">
    <g id="Group_41" clip-path="url(#clip-path)">
      <path id="Path_35" d="M15.753,9.443a13.759,13.759,0,0,0-6.114,1.369,14.178,14.178,0,0,0-3.613,2.57V0H1.066V37.9H6.027V34.475a13.413,13.413,0,0,0,3.448,2.636,13.082,13.082,0,0,0,6.18,1.466,13.808,13.808,0,0,0,10.138-4.258A14.118,14.118,0,0,0,30,24.058a14.311,14.311,0,0,0-4.169-10.342,13.645,13.645,0,0,0-10.08-4.273m7.932,19.432a9.39,9.39,0,0,1-8.308,4.874,9.1,9.1,0,0,1-6.819-2.822,9.6,9.6,0,0,1-2.773-7.061,10.067,10.067,0,0,1,1.237-4.987,9.081,9.081,0,0,1,3.529-3.492,9.8,9.8,0,0,1,4.873-1.307,9.2,9.2,0,0,1,4.718,1.3,9.621,9.621,0,0,1,3.53,3.645,9.89,9.89,0,0,1,.013,9.852" transform="translate(-0.224 0)" fill="#fff"/>
      <rect id="Rectangle_35" width="4.961" height="27.785" transform="translate(33.846 10.117)" fill="#fff"/>
      <path id="Path_36" d="M68.828,10.221h-5.36V.489H58.507v9.732H53.9v4.491h4.611V38.006h4.961V14.712h5.36Z" transform="translate(-11.309 -0.103)" fill="#fff"/>
      <path id="Path_37" d="M96.221,32.124a10.706,10.706,0,0,1-8.837,4.3,10.919,10.919,0,0,1-5.321-1.3,9.473,9.473,0,0,1-3.7-3.624,9.871,9.871,0,0,1-1.353-5,9.206,9.206,0,0,1,2.932-6.918,10.132,10.132,0,0,1,7.419-2.856,10.4,10.4,0,0,1,8.848,4.287l.435.575,3.952-2.451-.4-.665A12.135,12.135,0,0,0,97.123,15a14.873,14.873,0,0,0-4.348-2.193,16.942,16.942,0,0,0-5.281-.834A16.28,16.28,0,0,0,79.607,13.9a14.353,14.353,0,0,0-5.579,5.388A14.54,14.54,0,0,0,72,26.762,13.649,13.649,0,0,0,76.348,36.94,15.13,15.13,0,0,0,87.23,41.111a17.04,17.04,0,0,0,7.579-1.641,13.465,13.465,0,0,0,5.368-4.662l.439-.659-3.945-2.59Z" transform="translate(-15.108 -2.535)" fill="#fff"/>
      <path id="Path_38" d="M139.295,26.8a15,15,0,0,0-3.069-9.441,13.782,13.782,0,0,0-11.349-5.384,13.365,13.365,0,0,0-11.039,5.265,14.824,14.824,0,0,0-3.237,9.375,14.991,14.991,0,0,0,3.817,10.017c2.563,2.97,6.147,4.477,10.652,4.477a15.312,15.312,0,0,0,5.479-.931,13.722,13.722,0,0,0,4.384-2.721,16.359,16.359,0,0,0,3.407-4.656l.353-.694-4.2-2.2-.385.639a15.075,15.075,0,0,1-2.718,3.531,9.562,9.562,0,0,1-2.983,1.7,10.477,10.477,0,0,1-3.629.648,8.511,8.511,0,0,1-6.419-2.679A9.714,9.714,0,0,1,115.7,27.6h23.6Zm-23.007-3.7a9.62,9.62,0,0,1,2.514-4.043,8.8,8.8,0,0,1,6.122-2.281,9.763,9.763,0,0,1,4.139.914,8.6,8.6,0,0,1,3.136,2.38,9.481,9.481,0,0,1,1.542,3.03Z" transform="translate(-23.206 -2.535)" fill="#fff"/>
      <path id="Path_39" d="M168.92,13.6a10.152,10.152,0,0,0-5.661-1.623,11.877,11.877,0,0,0-5.737,1.433,13.7,13.7,0,0,0-3.323,2.578V12.652h-4.961V40.437H154.2v-10.4a34.5,34.5,0,0,1,.457-6.933,8.747,8.747,0,0,1,2.943-4.6,7.508,7.508,0,0,1,4.986-1.84,6.086,6.086,0,0,1,3.857,1.143,5.93,5.93,0,0,1,1.977,3.485,30.431,30.431,0,0,1,.353,5.857V40.437h4.96V26.158c0-3.706-.377-6.384-1.15-8.186A9.713,9.713,0,0,0,168.92,13.6" transform="translate(-31.313 -2.535)" fill="#fff"/>
      <path id="Path_40" d="M193.041.489H188.08v9.732h-4.611v4.491h4.611V38.005h4.961V14.712h5.36V10.221h-5.36Z" transform="translate(-38.496 -0.103)" fill="#fff"/>
      <path id="Path_41" d="M221.444,12.971a6.978,6.978,0,0,0-3.381-.993,7.243,7.243,0,0,0-4.005,1.249,10.784,10.784,0,0,0-2.036,1.764V12.653h-5.034V40.437h5.034V30.784c0-4.453.2-7.429.6-8.843a8.048,8.048,0,0,1,2.153-3.923,4.1,4.1,0,0,1,2.736-1.188,3.886,3.886,0,0,1,1.474.394l.627.27,2.555-4.121Z" transform="translate(-43.43 -2.535)" fill="#fff"/>
      <path id="Path_42" d="M248.131,16.069a12.838,12.838,0,0,0-9.665-4.091,13.831,13.831,0,0,0-10.148,4.258,14.087,14.087,0,0,0-4.211,10.237,14.33,14.33,0,0,0,4.173,10.367,14.133,14.133,0,0,0,16.222,2.89,14.494,14.494,0,0,0,3.628-2.571v3.28h4.912V12.653h-4.912Zm-1.02,15.588a9.035,9.035,0,0,1-3.523,3.476,9.515,9.515,0,0,1-13.151-3.645,9.814,9.814,0,0,1-.013-9.812,9.409,9.409,0,0,1,8.32-4.869,9.12,9.12,0,0,1,6.829,2.82,9.577,9.577,0,0,1,2.775,7.052,10.035,10.035,0,0,1-1.237,4.979" transform="translate(-47.023 -2.535)" fill="#fff"/>
      <rect id="Rectangle_36" width="4.961" height="37.902" transform="translate(210.096)" fill="#fff"/>
      <path id="Path_43" d="M306.51,8.5a7.442,7.442,0,1,1-7.442-7.425A7.433,7.433,0,0,1,306.51,8.5" transform="translate(-61.19 -0.228)" fill="#c90"/>
      <path id="Path_44" d="M334.213,8.5a7.442,7.442,0,1,1-7.443-7.425A7.434,7.434,0,0,1,334.213,8.5" transform="translate(-67.002 -0.228)" fill="#5c7f33"/>
      <path id="Path_45" d="M306.51,36.2a7.442,7.442,0,1,1-7.442-7.425A7.433,7.433,0,0,1,306.51,36.2" transform="translate(-61.19 -6.09)" fill="#933"/>
      <path id="Path_46" d="M334.213,36.2a7.442,7.442,0,1,1-7.443-7.425,7.434,7.434,0,0,1,7.443,7.425" transform="translate(-67.002 -6.09)" fill="#069"/>
      <path id="Path_47" d="M310.414,2.8V19.35H293.825v.676h16.589V36.575h.676V20.026h16.59V19.35H311.09V2.8Z" transform="translate(-61.651 -0.592)" fill="#fff"/>
    </g>
  </g>
  <g id="Group_44" transform="translate(232.174 2.207)">
    <g id="Group_43" clip-path="url(#clip-path-2)">
      <rect id="Rectangle_38" width="33.855" height="33.775" fill="#fff"/>
    </g>
  </g>
  <g id="Group_46">
    <g id="Group_45" clip-path="url(#clip-path)">
      <path id="Path_49" d="M4.044,60.352a3.854,3.854,0,0,0-2.891,1.192,4.138,4.138,0,0,0-1.153,3,3.983,3.983,0,0,0,4.152,4.1A4.6,4.6,0,0,0,6.2,68.219a3.924,3.924,0,0,0,1.48-1.308l-1.652-.784a2.6,2.6,0,0,1-1.889.776,2.278,2.278,0,0,1-1.512-.5A2.12,2.12,0,0,1,1.9,65.07H8.2l.007-.378a4.334,4.334,0,0,0-1.156-3.149,4,4,0,0,0-3-1.192m-2.062,3.16A2.579,2.579,0,0,1,2.7,62.49a2.334,2.334,0,0,1,1.438-.464,2.207,2.207,0,0,1,1.328.414,1.972,1.972,0,0,1,.766,1.072Z" transform="translate(0 -12.774)" fill="#fff"/>
      <path id="Path_50" d="M17.144,56.872a1.518,1.518,0,0,0-.543,1.034q-.043.281-.05,1.833h-.7v1.674h.7v6.211h1.961V61.413h1.243V59.738H18.512l.007-.985a.631.631,0,0,1,.115-.449.726.726,0,0,1,.5-.145,2.649,2.649,0,0,1,.7.123V56.774a4.054,4.054,0,0,0-1.38-.282,2.017,2.017,0,0,0-1.311.38" transform="translate(-3.327 -11.957)" fill="#fff"/>
      <path id="Path_51" d="M27.008,56.872a1.518,1.518,0,0,0-.543,1.034q-.043.281-.05,1.833h-.7v1.674h.7v6.211h1.961V61.413h1.242V59.738H28.376l.007-.985A.636.636,0,0,1,28.5,58.3a.729.729,0,0,1,.5-.145,2.639,2.639,0,0,1,.7.123V56.774a4.046,4.046,0,0,0-1.379-.282,2.017,2.017,0,0,0-1.311.38" transform="translate(-5.396 -11.957)" fill="#fff"/>
      <rect id="Rectangle_39" width="1.961" height="7.885" transform="translate(28.834 47.781)" fill="#fff"/>
      <path id="Path_52" d="M37.4,56.491a1.192,1.192,0,0,0-.881.37,1.221,1.221,0,0,0-.365.892,1.276,1.276,0,0,0,.369.923,1.193,1.193,0,0,0,.892.382,1.179,1.179,0,0,0,.873-.374,1.306,1.306,0,0,0,0-1.815,1.192,1.192,0,0,0-.885-.378" transform="translate(-7.586 -11.957)" fill="#fff"/>
      <path id="Path_53" d="M49.834,62.194a2.716,2.716,0,0,1,1.053.188,2.775,2.775,0,0,1,.909.675l1.633-.907a3.984,3.984,0,0,0-1.516-1.329,4.565,4.565,0,0,0-2.09-.467,4.689,4.689,0,0,0-2.273.55,4.023,4.023,0,0,0-1.584,1.515,4.169,4.169,0,0,0,.6,4.993,4.733,4.733,0,0,0,6.777-.417L51.8,65.926a2.488,2.488,0,0,1-2.049.906,2.361,2.361,0,0,1-1.719-.637,2.189,2.189,0,0,1-.654-1.642,2.265,2.265,0,0,1,.68-1.7,2.441,2.441,0,0,1,1.78-.662" transform="translate(-9.526 -12.774)" fill="#fff"/>
      <rect id="Rectangle_40" width="1.961" height="7.885" transform="translate(49.134 47.781)" fill="#fff"/>
      <path id="Path_54" d="M63.09,56.491a1.192,1.192,0,0,0-.881.37,1.221,1.221,0,0,0-.365.892,1.276,1.276,0,0,0,.369.923,1.193,1.193,0,0,0,.892.382,1.179,1.179,0,0,0,.873-.374,1.241,1.241,0,0,0,.366-.9,1.256,1.256,0,0,0-.369-.913,1.19,1.19,0,0,0-.885-.378" transform="translate(-12.976 -11.957)" fill="#fff"/>
      <path id="Path_55" d="M75.152,60.352a3.856,3.856,0,0,0-2.891,1.192,4.141,4.141,0,0,0-1.153,3,3.984,3.984,0,0,0,4.152,4.1,4.6,4.6,0,0,0,2.047-.424,3.918,3.918,0,0,0,1.48-1.308l-1.652-.784a2.6,2.6,0,0,1-1.889.776,2.282,2.282,0,0,1-1.513-.5A2.123,2.123,0,0,1,73,65.07h6.3l.007-.378a4.331,4.331,0,0,0-1.157-3.149,4,4,0,0,0-3-1.192m-2.062,3.16a2.579,2.579,0,0,1,.72-1.022,2.335,2.335,0,0,1,1.439-.464,2.207,2.207,0,0,1,1.328.414,1.978,1.978,0,0,1,.766,1.072Z" transform="translate(-14.92 -12.774)" fill="#fff"/>
      <path id="Path_56" d="M92.422,60.353a2.9,2.9,0,0,0-1.108.222,4.727,4.727,0,0,0-1.209.789v-.808H88.144v7.885h1.961V65.277a9,9,0,0,1,.086-1.6,2.144,2.144,0,0,1,.591-1.111,1.436,1.436,0,0,1,1.021-.4,1.217,1.217,0,0,1,.77.242,1.286,1.286,0,0,1,.438.706,8.873,8.873,0,0,1,.125,1.875v3.453h1.94V63.23a2.829,2.829,0,0,0-.681-2.058,2.673,2.673,0,0,0-1.973-.819" transform="translate(-18.495 -12.774)" fill="#fff"/>
      <path id="Path_57" d="M105.965,56.924H104V59.83H103v1.7H104v6.181h1.961V61.533h1.164v-1.7h-1.164Z" transform="translate(-21.611 -12.048)" fill="#fff"/>
      <path id="Path_58" d="M134.841,60.744a2.728,2.728,0,0,0-1.466-.391,3.107,3.107,0,0,0-1.485.362,3.172,3.172,0,0,0-1.147,1.059,2.613,2.613,0,0,0-.949-1.059,2.478,2.478,0,0,0-1.323-.362,3.229,3.229,0,0,0-1.341.276,3.334,3.334,0,0,0-1.117.832v-.906h-1.961v7.885h1.961V64.932a5.131,5.131,0,0,1,.2-1.667,1.75,1.75,0,0,1,.6-.822,1.466,1.466,0,0,1,.89-.294,1.22,1.22,0,0,1,.749.232,1.384,1.384,0,0,1,.464.707,5.4,5.4,0,0,1,.155,1.533v3.82h1.975V64.882a5.007,5.007,0,0,1,.194-1.641,1.715,1.715,0,0,1,.592-.8,1.5,1.5,0,0,1,.9-.29,1.127,1.127,0,0,1,.991.475,3.444,3.444,0,0,1,.33,1.815v4h1.975V63.816a5.514,5.514,0,0,0-.277-2.05,2.256,2.256,0,0,0-.91-1.022" transform="translate(-26.029 -12.774)" fill="#fff"/>
      <path id="Path_59" d="M149.806,60.352a3.854,3.854,0,0,0-2.891,1.192,4.138,4.138,0,0,0-1.153,3,3.983,3.983,0,0,0,4.152,4.1,4.6,4.6,0,0,0,2.047-.424,3.916,3.916,0,0,0,1.479-1.308l-1.651-.784a2.6,2.6,0,0,1-1.889.776,2.278,2.278,0,0,1-1.512-.5,2.116,2.116,0,0,1-.729-1.337h6.3l.007-.378a4.334,4.334,0,0,0-1.156-3.149,4,4,0,0,0-3-1.192m-2.062,3.16a2.579,2.579,0,0,1,.72-1.022,2.334,2.334,0,0,1,1.438-.464,2.207,2.207,0,0,1,1.328.414A1.98,1.98,0,0,1,152,63.512Z" transform="translate(-30.584 -12.774)" fill="#fff"/>
      <path id="Path_60" d="M168.47,60.662a3.619,3.619,0,0,0-1.141-.8,3.285,3.285,0,0,0-1.32-.268,3.393,3.393,0,0,0-2.6,1.167,4.256,4.256,0,0,0-1.07,2.993,4.157,4.157,0,0,0,1.105,2.946,3.464,3.464,0,0,0,2.619,1.185,3.2,3.2,0,0,0,1.252-.243,3.865,3.865,0,0,0,1.151-.794v.833h1.961V56.749H168.47Zm-.522,4.758a2.013,2.013,0,0,1-1.531.648,1.974,1.974,0,0,1-1.508-.659,2.374,2.374,0,0,1-.612-1.681,2.35,2.35,0,0,1,.6-1.664,1.971,1.971,0,0,1,1.51-.648,2.037,2.037,0,0,1,1.539.637,2.317,2.317,0,0,1,.609,1.667,2.384,2.384,0,0,1-.609,1.7" transform="translate(-34.063 -12.011)" fill="#fff"/>
      <path id="Path_61" d="M180.379,56.491a1.191,1.191,0,0,0-.881.37,1.221,1.221,0,0,0-.365.892,1.272,1.272,0,0,0,.369.923,1.193,1.193,0,0,0,.892.382,1.18,1.18,0,0,0,.873-.374,1.241,1.241,0,0,0,.366-.9,1.254,1.254,0,0,0-.37-.913,1.187,1.187,0,0,0-.884-.378" transform="translate(-37.586 -11.957)" fill="#fff"/>
      <rect id="Rectangle_41" width="1.961" height="7.885" transform="translate(141.812 47.781)" fill="#fff"/>
      <path id="Path_62" d="M194.534,61.425a3.62,3.62,0,0,0-1.141-.8,3.285,3.285,0,0,0-1.32-.268,3.393,3.393,0,0,0-2.6,1.167,4.256,4.256,0,0,0-1.07,2.993,4.154,4.154,0,0,0,1.105,2.946,3.464,3.464,0,0,0,2.619,1.185,3.2,3.2,0,0,0,1.252-.243,3.868,3.868,0,0,0,1.152-.794v.833H196.5V60.555h-1.961Zm-.522,4.758a2.014,2.014,0,0,1-1.532.648,1.976,1.976,0,0,1-1.508-.659,2.377,2.377,0,0,1-.612-1.681,2.35,2.35,0,0,1,.6-1.664,1.971,1.971,0,0,1,1.51-.648,2.038,2.038,0,0,1,1.539.637,2.32,2.32,0,0,1,.608,1.667,2.387,2.387,0,0,1-.608,1.7" transform="translate(-39.532 -12.774)" fill="#fff"/>
      <path id="Path_63" d="M222.59,65.045l-1.661-4.435h-1.174L218.064,65.1l-1.572-4.486h-1.919l2.816,7.885h1.229L220.334,64,222,68.494h1.243l2.852-7.885h-1.932Z" transform="translate(-45.022 -12.828)" fill="#fff"/>
      <path id="Path_64" d="M240.864,60.911a4.112,4.112,0,0,0-2.08-.558,3.9,3.9,0,0,0-2.708,1.072,4.206,4.206,0,0,0-.155,6.011,3.881,3.881,0,0,0,2.87,1.207,4.106,4.106,0,0,0,2.091-.547,3.993,3.993,0,0,0,1.5-1.518,4.166,4.166,0,0,0,.549-2.087,4.1,4.1,0,0,0-.545-2.065,4.011,4.011,0,0,0-1.52-1.514m-.522,5.246a2.027,2.027,0,0,1-1.533.645,2,2,0,0,1-1.522-.638,2.331,2.331,0,0,1-.6-1.667,2.285,2.285,0,0,1,.608-1.641,2.15,2.15,0,0,1,3.057-.007,2.561,2.561,0,0,1-.01,3.308" transform="translate(-49.252 -12.774)" fill="#fff"/>
      <path id="Path_65" d="M253.612,60.656a2.126,2.126,0,0,0-.727.892v-.993H251.2V68.44h1.948V65.251l-.009-.384a5.208,5.208,0,0,1,.313-2.218.9.9,0,0,1,.765-.564,1.338,1.338,0,0,1,.567.173l.612-1.7a1.829,1.829,0,0,0-.8-.2,1.738,1.738,0,0,0-.991.3" transform="translate(-52.708 -12.774)" fill="#fff"/>
      <path id="Path_66" d="M269.725,59.792h-2.463l-2.887,3.251V56.749h-1.961V67.677h1.961V64.044l3.319,3.633h2.434l-3.769-4.106Z" transform="translate(-55.06 -12.011)" fill="#fff"/>
      <path id="Path_67" d="M277.957,56.872a1.521,1.521,0,0,0-.543,1.034q-.043.281-.05,1.833h-.7v1.674h.7v6.211h1.96V61.413h1.244V59.738h-1.244l.008-.985a.632.632,0,0,1,.115-.449.726.726,0,0,1,.5-.145,2.649,2.649,0,0,1,.7.123V56.774a4.054,4.054,0,0,0-1.38-.282,2.017,2.017,0,0,0-1.311.38" transform="translate(-58.051 -11.957)" fill="#fff"/>
      <rect id="Rectangle_42" width="1.96" height="10.928" transform="translate(227.13 44.738)" fill="#fff"/>
      <path id="Path_68" d="M302.481,60.911a4.114,4.114,0,0,0-2.08-.558,3.9,3.9,0,0,0-2.708,1.072,4.2,4.2,0,0,0-.155,6.011,3.881,3.881,0,0,0,2.87,1.207A4.108,4.108,0,0,0,302.5,68.1a3.993,3.993,0,0,0,1.5-1.518,4.166,4.166,0,0,0,.549-2.087A4.092,4.092,0,0,0,304,62.426a4,4,0,0,0-1.519-1.514m-.522,5.246a2.024,2.024,0,0,1-1.532.645,2,2,0,0,1-1.522-.638,2.331,2.331,0,0,1-.6-1.667,2.288,2.288,0,0,1,.608-1.641,2.151,2.151,0,0,1,3.058-.007,2.56,2.56,0,0,1-.011,3.308" transform="translate(-62.181 -12.774)" fill="#fff"/>
      <path id="Path_69" d="M320.325,65.045l-1.661-4.435H317.49L315.8,65.1l-1.572-4.486h-1.92l2.816,7.885h1.229L318.07,64l1.666,4.493h1.242l2.853-7.885H321.9Z" transform="translate(-65.529 -12.828)" fill="#fff"/>
      <path id="Path_70" d="M337.289,64.809a4.25,4.25,0,0,0-1.559-1.153l-.718-.362a2.2,2.2,0,0,1-.586-.367.432.432,0,0,1-.118-.293.425.425,0,0,1,.186-.352.84.84,0,0,1,.517-.141,2.05,2.05,0,0,1,1.343.739l1.214-1.225a3.162,3.162,0,0,0-2.571-1.3,2.581,2.581,0,0,0-1.828.663,2.1,2.1,0,0,0-.714,1.6q0,1.449,1.9,2.412l.661.333q.856.435.855.892a.546.546,0,0,1-.238.435.976.976,0,0,1-.625.188,1.772,1.772,0,0,1-.822-.25,2.8,2.8,0,0,1-.808-.656L332.168,67.3a3.248,3.248,0,0,0,2.729,1.348,2.917,2.917,0,0,0,2.051-.7,2.417,2.417,0,0,0,.341-3.131" transform="translate(-69.696 -12.774)" fill="#fff"/>
      <path id="Path_71" d="M342.164,3.175a1.854,1.854,0,0,1-3.707.009,1.855,1.855,0,0,1,2.778-1.61,1.867,1.867,0,0,1,.929,1.6m-.258,0a1.612,1.612,0,0,0-.8-1.384,1.55,1.55,0,0,0-.793-.215,1.574,1.574,0,0,0-.8.215,1.545,1.545,0,0,0-.588.587,1.59,1.59,0,0,0-.213.8,1.594,1.594,0,0,0,2.4,1.38,1.593,1.593,0,0,0,.8-1.384M339.54,2.1h.889a1.183,1.183,0,0,1,.45.062.506.506,0,0,1,.222.2.625.625,0,0,1,.086.33.592.592,0,0,1-.062.281.6.6,0,0,1-.205.191.425.425,0,0,1,.194.163.745.745,0,0,1,.05.319v.24a.493.493,0,0,0,.076.283l.036.056H340.9a1.6,1.6,0,0,1-.051-.314l-.017-.262a.468.468,0,0,0-.046-.2.207.207,0,0,0-.1-.085.884.884,0,0,0-.267-.026h-.534v.889h-.338Zm.338.307v.631h.523a.651.651,0,0,0,.322-.054.286.286,0,0,0,.126-.264.294.294,0,0,0-.09-.237.54.54,0,0,0-.337-.075Z" transform="translate(-71.016 -0.281)" fill="#fff"/>
    </g>
  </g>
</svg>