<svg xmlns="http://www.w3.org/2000/svg" width="222.101" height="45.869" viewBox="0 0 222.101 45.869">
  <defs>
    <clipPath id="clip-path">
      <path id="Path_85" d="M363.252,44.064V57.653H349.664v.554h13.589V71.794h.554V58.207h13.588v-.554H363.806V44.064Z" transform="translate(-349.664 -44.064)" fill="#231f20"/>
    </clipPath>
  </defs>
  <g id="Group_724" transform="translate(-189.049 -39)">
    <g id="Bitcentral_logo_w_tagline_on_white" transform="translate(189.049 39)">
      <g id="Group_57" transform="translate(0.69)">
        <path id="Path_72" d="M68.935,49.017a11.266,11.266,0,0,0-5.008,1.124,11.677,11.677,0,0,0-2.959,2.11V41.265H56.9V72.383h4.063V69.57a11.009,11.009,0,0,0,2.824,2.164,10.7,10.7,0,0,0,5.063,1.2,11.3,11.3,0,0,0,8.3-3.5,11.607,11.607,0,0,0,3.447-8.425,11.768,11.768,0,0,0-3.414-8.492A11.167,11.167,0,0,0,68.935,49.017ZM76.5,60.937a8.153,8.153,0,0,1-1.072,4.034,7.688,7.688,0,0,1-6.805,4,7.446,7.446,0,0,1-5.586-2.317,7.893,7.893,0,0,1-2.272-5.8,8.273,8.273,0,0,1,1.014-4.094A7.455,7.455,0,0,1,64.675,53.9a8.021,8.021,0,0,1,3.992-1.072,7.52,7.52,0,0,1,3.864,1.067,7.887,7.887,0,0,1,2.892,2.992A8.215,8.215,0,0,1,76.5,60.937Z" transform="translate(-56.905 -41.265)" fill="#231f20"/>
        <rect id="Rectangle_47" width="4.064" height="22.812" transform="translate(27.034 8.306)" fill="#231f20"/>
        <path id="Path_73" d="M121.966,49.743h-4.39v-7.99h-4.064v7.99h-3.778v3.688h3.778V72.555h4.064V53.431h4.39Z" transform="translate(-75.541 -41.437)" fill="#231f20"/>
        <path id="Path_74" d="M147.68,69.783a8.762,8.762,0,0,1-7.238,3.533,8.921,8.921,0,0,1-4.359-1.067,7.762,7.762,0,0,1-3.031-2.975,8.119,8.119,0,0,1-1.108-4.1,7.567,7.567,0,0,1,2.4-5.68,8.285,8.285,0,0,1,6.077-2.346,8.514,8.514,0,0,1,7.247,3.52l.356.473,3.238-2.013-.327-.546a9.945,9.945,0,0,0-2.517-2.854,12.176,12.176,0,0,0-3.562-1.8,13.842,13.842,0,0,0-4.326-.685,13.308,13.308,0,0,0-6.46,1.583,11.774,11.774,0,0,0-4.57,4.423,11.969,11.969,0,0,0-1.66,6.133,11.221,11.221,0,0,0,3.56,8.357,12.377,12.377,0,0,0,8.914,3.425,13.935,13.935,0,0,0,6.208-1.347,11.041,11.041,0,0,0,4.4-3.828l.359-.541-3.231-2.126Z" transform="translate(-81.928 -45.49)" fill="#231f20"/>
        <path id="Path_75" d="M189.943,65.413a12.338,12.338,0,0,0-2.513-7.751,11.281,11.281,0,0,0-9.3-4.42,10.938,10.938,0,0,0-9.041,4.322,12.189,12.189,0,0,0-2.652,7.7,12.321,12.321,0,0,0,3.127,8.225,10.948,10.948,0,0,0,8.725,3.676,12.517,12.517,0,0,0,4.489-.764,11.242,11.242,0,0,0,3.59-2.234,13.425,13.425,0,0,0,2.791-3.822l.29-.57-3.439-1.808-.315.524a12.335,12.335,0,0,1-2.227,2.9,7.813,7.813,0,0,1-2.443,1.4,8.583,8.583,0,0,1-2.973.532,6.962,6.962,0,0,1-5.258-2.2,7.977,7.977,0,0,1-2.18-5.049h19.333Zm-5.812-5.522a7.79,7.79,0,0,1,1.263,2.488H171.1a7.914,7.914,0,0,1,2.06-3.32,7.2,7.2,0,0,1,5.014-1.872,7.98,7.98,0,0,1,3.39.75A7.038,7.038,0,0,1,184.131,59.891Z" transform="translate(-95.544 -45.49)" fill="#231f20"/>
        <path id="Path_76" d="M221.2,54.575a8.3,8.3,0,0,0-4.637-1.333,9.712,9.712,0,0,0-4.7,1.177,11.237,11.237,0,0,0-2.722,2.116V53.8h-4.063V76.608h4.063V68.07a28.374,28.374,0,0,1,.375-5.692,7.18,7.18,0,0,1,2.41-3.779,6.143,6.143,0,0,1,4.085-1.511,4.979,4.979,0,0,1,3.159.938,4.877,4.877,0,0,1,1.619,2.861,25.111,25.111,0,0,1,.289,4.808V76.608h4.063V64.885a17.859,17.859,0,0,0-.942-6.721A7.967,7.967,0,0,0,221.2,54.575Z" transform="translate(-109.174 -45.49)" fill="#231f20"/>
        <path id="Path_77" d="M247.148,41.753h-4.064v7.99h-3.777v3.688h3.777V72.555h4.064V53.431h4.39V49.743h-4.39Z" transform="translate(-121.249 -41.437)" fill="#231f20"/>
        <path id="Path_78" d="M274.668,54.057a5.706,5.706,0,0,0-2.77-.815,5.923,5.923,0,0,0-3.281,1.025,8.862,8.862,0,0,0-1.668,1.448V53.8h-4.124V76.608h4.124V68.683a33.661,33.661,0,0,1,.489-7.261A6.614,6.614,0,0,1,269.2,58.2a3.359,3.359,0,0,1,2.241-.975,3.19,3.19,0,0,1,1.207.324l.513.221,2.093-3.383Z" transform="translate(-129.545 -45.49)" fill="#231f20"/>
        <path id="Path_79" d="M299.625,56.6a10.509,10.509,0,0,0-7.917-3.359,11.317,11.317,0,0,0-8.313,3.5,11.579,11.579,0,0,0-3.449,8.4,11.78,11.78,0,0,0,3.419,8.511,11.556,11.556,0,0,0,13.288,2.373,11.873,11.873,0,0,0,2.972-2.111v2.693h4.023V53.8h-4.023Zm-2.1,2.92a7.871,7.871,0,0,1,2.274,5.79,8.254,8.254,0,0,1-1.013,4.088,7.418,7.418,0,0,1-2.885,2.854,7.786,7.786,0,0,1-10.772-2.993,8.071,8.071,0,0,1-.012-8.056,7.706,7.706,0,0,1,6.815-4A7.459,7.459,0,0,1,297.528,59.522Z" transform="translate(-135.584 -45.49)" fill="#231f20"/>
        <rect id="Rectangle_48" width="4.064" height="31.118" transform="translate(171.402)" fill="#231f20"/>
      </g>
      <g id="Group_61" transform="translate(188.754 0.696)">
        <g id="Group_60">
          <path id="Path_80" d="M359.658,48.436a6.1,6.1,0,1,1-6.1-6.1,6.1,6.1,0,0,1,6.1,6.1" transform="translate(-347.467 -42.34)" fill="#c90"/>
          <path id="Path_81" d="M387.359,48.436a6.1,6.1,0,1,1-6.1-6.1,6.1,6.1,0,0,1,6.1,6.1" transform="translate(-357.238 -42.34)" fill="#5c7f33"/>
          <path id="Path_82" d="M359.658,76.136a6.1,6.1,0,1,1-6.1-6.1,6.1,6.1,0,0,1,6.1,6.1" transform="translate(-347.467 -52.111)" fill="#933"/>
          <path id="Path_83" d="M387.359,76.136a6.1,6.1,0,1,1-6.1-6.1,6.1,6.1,0,0,1,6.1,6.1" transform="translate(-357.238 -52.111)" fill="#069"/>
          <g id="Group_59" transform="translate(1.422 1.116)">
            <path id="Path_84" d="M363.252,44.064V57.653H349.664v.554h13.589V71.794h.554V58.207h13.588v-.554H363.806V44.064Z" transform="translate(-349.664 -44.064)" fill="#231f20"/>
            <g id="Group_58" clip-path="url(#clip-path)">
              <rect id="Rectangle_49" width="27.731" height="27.73" transform="translate(0)" fill="#231f20"/>
            </g>
          </g>
        </g>
      </g>
      <path id="Path_86" d="M62.553,105.49h-5.16a1.74,1.74,0,0,0,.6,1.1,1.86,1.86,0,0,0,1.239.408,2.129,2.129,0,0,0,1.547-.636l1.353.642a3.206,3.206,0,0,1-1.212,1.074,3.761,3.761,0,0,1-1.677.348,3.265,3.265,0,0,1-3.4-3.368,3.4,3.4,0,0,1,.944-2.46,3.155,3.155,0,0,1,2.368-.979,3.269,3.269,0,0,1,2.46.979,3.56,3.56,0,0,1,.948,2.586Zm-1.606-1.279a1.628,1.628,0,0,0-.628-.88,1.8,1.8,0,0,0-1.087-.339,1.909,1.909,0,0,0-1.179.381,2.124,2.124,0,0,0-.59.839Z" transform="translate(-55.839 -62.554)" fill="#005389"/>
      <path id="Path_87" d="M71.694,100.421h.57q.006-1.273.041-1.5a1.245,1.245,0,0,1,.444-.848,1.646,1.646,0,0,1,1.074-.313,3.313,3.313,0,0,1,1.13.232v1.238a2.144,2.144,0,0,0-.571-.1.6.6,0,0,0-.412.119.519.519,0,0,0-.094.369l-.006.809h1.018V101.8H73.871v5.1H72.264v-5.1h-.57Z" transform="translate(-61.432 -61.192)" fill="#005389"/>
      <path id="Path_88" d="M81.557,100.421h.571q.006-1.273.041-1.5a1.243,1.243,0,0,1,.444-.848,1.646,1.646,0,0,1,1.074-.313,3.31,3.31,0,0,1,1.129.232v1.238a2.135,2.135,0,0,0-.57-.1.6.6,0,0,0-.412.119.52.52,0,0,0-.094.369l-.006.809h1.017V101.8H83.734v5.1H82.128v-5.1h-.571Z" transform="translate(-64.911 -61.192)" fill="#005389"/>
      <path id="Path_89" d="M93.014,97.756a.978.978,0,0,1,.725.309,1.035,1.035,0,0,1,.3.749,1.02,1.02,0,0,1-.3.741.963.963,0,0,1-.715.306.981.981,0,0,1-.731-.312,1.052,1.052,0,0,1-.3-.759,1,1,0,0,1,.3-.732A.977.977,0,0,1,93.014,97.756Zm-.8,2.665h1.606V106.9H92.211Z" transform="translate(-68.593 -61.192)" fill="#005389"/>
      <path id="Path_90" d="M107.817,103.093l-1.337.744a2.261,2.261,0,0,0-.745-.553,2.224,2.224,0,0,0-.863-.155,2,2,0,0,0-1.458.544,1.861,1.861,0,0,0-.557,1.393,1.8,1.8,0,0,0,.536,1.349,1.931,1.931,0,0,0,1.408.522,2.037,2.037,0,0,0,1.679-.744l1.267.877a3.873,3.873,0,0,1-5.551.343,3.43,3.43,0,0,1-.491-4.1,3.3,3.3,0,0,1,1.3-1.243,3.838,3.838,0,0,1,1.863-.452,3.744,3.744,0,0,1,1.712.384A3.26,3.26,0,0,1,107.817,103.093Z" transform="translate(-71.854 -62.554)" fill="#005389"/>
      <path id="Path_91" d="M118.7,97.756a.978.978,0,0,1,.724.309,1.074,1.074,0,0,1,0,1.491.964.964,0,0,1-.716.306.982.982,0,0,1-.731-.312,1.052,1.052,0,0,1-.3-.759,1,1,0,0,1,.3-.732A.976.976,0,0,1,118.7,97.756Zm-.8,2.665h1.606V106.9H117.9Z" transform="translate(-77.655 -61.192)" fill="#005389"/>
      <path id="Path_92" d="M133.661,105.49H128.5a1.74,1.74,0,0,0,.6,1.1,1.86,1.86,0,0,0,1.238.408,2.13,2.13,0,0,0,1.548-.636l1.353.642a3.2,3.2,0,0,1-1.212,1.074,3.756,3.756,0,0,1-1.676.348,3.265,3.265,0,0,1-3.4-3.368,3.4,3.4,0,0,1,.944-2.46,3.155,3.155,0,0,1,2.368-.979,3.27,3.27,0,0,1,2.46.979,3.56,3.56,0,0,1,.948,2.586Zm-1.606-1.279a1.628,1.628,0,0,0-.628-.88,1.8,1.8,0,0,0-1.087-.339,1.909,1.909,0,0,0-1.179.381,2.117,2.117,0,0,0-.59.839Z" transform="translate(-80.923 -62.554)" fill="#005389"/>
      <path id="Path_93" d="M143.983,101.783h1.606v.663a3.86,3.86,0,0,1,.99-.648,2.373,2.373,0,0,1,.907-.182,2.183,2.183,0,0,1,1.616.672,2.323,2.323,0,0,1,.559,1.689v4.278h-1.589v-2.835a7.238,7.238,0,0,0-.1-1.539,1.052,1.052,0,0,0-.358-.579,1,1,0,0,0-.631-.2,1.176,1.176,0,0,0-.836.33,1.764,1.764,0,0,0-.484.912,7.415,7.415,0,0,0-.071,1.314v2.6h-1.606Z" transform="translate(-86.932 -62.554)" fill="#005389"/>
      <path id="Path_94" d="M159.661,98.188h1.606v2.386h.953v1.4h-.953v5.075h-1.606v-5.075h-.823v-1.4h.823Z" transform="translate(-92.173 -61.345)" fill="#005389"/>
      <path id="Path_95" d="M179.892,101.783H181.5v.744a2.745,2.745,0,0,1,.915-.685,2.659,2.659,0,0,1,1.1-.226,2.023,2.023,0,0,1,1.083.3,2.142,2.142,0,0,1,.777.869,2.6,2.6,0,0,1,.938-.869,2.537,2.537,0,0,1,1.216-.3,2.232,2.232,0,0,1,1.2.321,1.849,1.849,0,0,1,.745.839,4.534,4.534,0,0,1,.227,1.683v3.8h-1.618v-3.284a2.835,2.835,0,0,0-.271-1.491.924.924,0,0,0-.812-.39,1.222,1.222,0,0,0-.738.238,1.4,1.4,0,0,0-.485.657,4.12,4.12,0,0,0-.159,1.348v2.922H184v-3.135a4.456,4.456,0,0,0-.127-1.259,1.134,1.134,0,0,0-.381-.58.992.992,0,0,0-.613-.19,1.2,1.2,0,0,0-.729.241,1.436,1.436,0,0,0-.489.675,4.226,4.226,0,0,0-.162,1.369v2.88h-1.606Z" transform="translate(-99.6 -62.554)" fill="#005389"/>
      <path id="Path_96" d="M208.314,105.49h-5.16a1.74,1.74,0,0,0,.6,1.1,1.86,1.86,0,0,0,1.239.408,2.132,2.132,0,0,0,1.548-.636l1.353.642a3.213,3.213,0,0,1-1.212,1.074,3.759,3.759,0,0,1-1.677.348,3.264,3.264,0,0,1-3.4-3.368,3.4,3.4,0,0,1,.944-2.46,3.153,3.153,0,0,1,2.368-.979,3.271,3.271,0,0,1,2.46.979,3.562,3.562,0,0,1,.947,2.586Zm-1.606-1.279a1.628,1.628,0,0,0-.628-.88,1.8,1.8,0,0,0-1.087-.339,1.909,1.909,0,0,0-1.179.381,2.117,2.117,0,0,0-.589.839Z" transform="translate(-107.258 -62.554)" fill="#005389"/>
      <path id="Path_97" d="M223.2,98.014h1.606v8.972H223.2V106.3a3.149,3.149,0,0,1-.944.651,2.6,2.6,0,0,1-1.025.2,2.836,2.836,0,0,1-2.146-.973,3.415,3.415,0,0,1-.9-2.418,3.5,3.5,0,0,1,.876-2.458,2.775,2.775,0,0,1,2.127-.958,2.673,2.673,0,0,1,1.081.22,2.965,2.965,0,0,1,.935.66Zm-1.689,3.832a1.614,1.614,0,0,0-1.238.532,1.931,1.931,0,0,0-.493,1.366,1.954,1.954,0,0,0,.5,1.381,1.616,1.616,0,0,0,1.235.541,1.644,1.644,0,0,0,1.254-.533,1.956,1.956,0,0,0,.5-1.395,1.9,1.9,0,0,0-.5-1.369A1.665,1.665,0,0,0,221.513,101.846Z" transform="translate(-113.107 -61.283)" fill="#005389"/>
      <path id="Path_98" d="M235.994,97.756a.978.978,0,0,1,.724.309,1.035,1.035,0,0,1,.3.749,1.022,1.022,0,0,1-.3.741.964.964,0,0,1-.716.306.982.982,0,0,1-.731-.312,1.052,1.052,0,0,1-.3-.759,1,1,0,0,1,.3-.732A.976.976,0,0,1,235.994,97.756Zm-.8,2.665H236.8V106.9H235.19Z" transform="translate(-119.03 -61.192)" fill="#005389"/>
      <path id="Path_99" d="M249.264,101.783h1.606v6.474h-1.606v-.684a3.141,3.141,0,0,1-.944.651,2.6,2.6,0,0,1-1.025.2,2.835,2.835,0,0,1-2.145-.973,3.412,3.412,0,0,1-.905-2.418,3.5,3.5,0,0,1,.876-2.458,2.776,2.776,0,0,1,2.127-.958,2.678,2.678,0,0,1,1.082.22,2.962,2.962,0,0,1,.935.66Zm-1.689,1.333a1.615,1.615,0,0,0-1.238.532,2.145,2.145,0,0,0,.009,2.746,1.615,1.615,0,0,0,1.234.541,1.646,1.646,0,0,0,1.255-.533,1.958,1.958,0,0,0,.5-1.395,1.906,1.906,0,0,0-.5-1.369A1.667,1.667,0,0,0,247.576,103.117Z" transform="translate(-122.301 -62.554)" fill="#005389"/>
      <path id="Path_100" d="M270.413,101.874h1.572l1.287,3.683,1.385-3.683h.962l1.36,3.641,1.289-3.641h1.582l-2.336,6.474H276.5l-1.365-3.689-1.406,3.689h-1.006Z" transform="translate(-131.532 -62.645)" fill="#005389"/>
      <path id="Path_101" d="M293.89,101.617a3.364,3.364,0,0,1,1.7.458,3.288,3.288,0,0,1,1.244,1.243,3.368,3.368,0,0,1,.447,1.7,3.424,3.424,0,0,1-.45,1.713,3.262,3.262,0,0,1-1.227,1.247,3.355,3.355,0,0,1-1.712.449,3.177,3.177,0,0,1-2.351-.99,3.459,3.459,0,0,1,.127-4.936A3.2,3.2,0,0,1,293.89,101.617Zm.027,1.529a1.645,1.645,0,0,0-1.247.526,1.882,1.882,0,0,0-.5,1.348,1.915,1.915,0,0,0,.492,1.368,1.636,1.636,0,0,0,1.247.524,1.657,1.657,0,0,0,1.256-.53,2.106,2.106,0,0,0,.008-2.716A1.656,1.656,0,0,0,293.917,103.146Z" transform="translate(-138.643 -62.554)" fill="#005389"/>
      <path id="Path_102" d="M307.044,101.783h1.377v.816a1.734,1.734,0,0,1,.595-.732,1.423,1.423,0,0,1,.812-.25,1.493,1.493,0,0,1,.653.166l-.5,1.4a1.1,1.1,0,0,0-.465-.143.736.736,0,0,0-.627.464,4.287,4.287,0,0,0-.256,1.821l.006.315v2.618h-1.595Z" transform="translate(-144.453 -62.554)" fill="#005389"/>
      <path id="Path_103" d="M318.253,98.014h1.606v5.168l2.365-2.669h2.017l-2.758,3.1,3.087,3.371h-1.994L319.859,104v2.983h-1.606Z" transform="translate(-148.408 -61.283)" fill="#005389"/>
      <path id="Path_104" d="M332.507,100.421h.571q.006-1.273.041-1.5a1.246,1.246,0,0,1,.445-.848,1.646,1.646,0,0,1,1.074-.313,3.316,3.316,0,0,1,1.13.232v1.238a2.143,2.143,0,0,0-.571-.1.6.6,0,0,0-.412.119.52.52,0,0,0-.094.369l-.006.809H335.7V101.8h-1.017v5.1h-1.606v-5.1h-.571Z" transform="translate(-153.436 -61.192)" fill="#005389"/>
      <path id="Path_105" d="M343.28,98.014h1.606v8.972H343.28Z" transform="translate(-157.236 -61.283)" fill="#005389"/>
      <path id="Path_106" d="M355.507,101.617a3.366,3.366,0,0,1,1.7.458,3.288,3.288,0,0,1,1.244,1.243,3.367,3.367,0,0,1,.447,1.7,3.424,3.424,0,0,1-.45,1.713,3.263,3.263,0,0,1-1.227,1.247,3.355,3.355,0,0,1-1.712.449,3.177,3.177,0,0,1-2.351-.99,3.459,3.459,0,0,1,.127-4.936A3.2,3.2,0,0,1,355.507,101.617Zm.027,1.529a1.645,1.645,0,0,0-1.247.526,1.882,1.882,0,0,0-.5,1.348,1.915,1.915,0,0,0,.492,1.368,1.636,1.636,0,0,0,1.247.524,1.657,1.657,0,0,0,1.256-.53,2.106,2.106,0,0,0,.008-2.716A1.656,1.656,0,0,0,355.534,103.146Z" transform="translate(-160.379 -62.554)" fill="#005389"/>
      <path id="Path_107" d="M368.148,101.874h1.572l1.287,3.683,1.385-3.683h.962l1.36,3.641L376,101.874h1.583l-2.336,6.474h-1.017l-1.365-3.689-1.406,3.689h-1.006Z" transform="translate(-166.008 -62.645)" fill="#005389"/>
      <path id="Path_108" d="M392.431,102.688l-.994,1.005a1.675,1.675,0,0,0-1.1-.606.683.683,0,0,0-.423.116.349.349,0,0,0-.153.289.36.36,0,0,0,.1.241,1.815,1.815,0,0,0,.48.3l.588.3a3.462,3.462,0,0,1,1.277.946,1.985,1.985,0,0,1-.28,2.57,2.382,2.382,0,0,1-1.68.577,2.662,2.662,0,0,1-2.236-1.106l.989-1.089a2.268,2.268,0,0,0,.662.539,1.445,1.445,0,0,0,.673.205.8.8,0,0,0,.512-.155.449.449,0,0,0,.194-.357q0-.375-.7-.732l-.541-.274q-1.553-.791-1.553-1.981a1.728,1.728,0,0,1,.585-1.312,2.112,2.112,0,0,1,1.5-.544,2.588,2.588,0,0,1,2.106,1.071Z" transform="translate(-173.013 -62.554)" fill="#005389"/>
      <g id="Group_62" transform="translate(219.064 0.86)">
        <path id="Path_109" d="M397.333,44.109a1.518,1.518,0,0,1-3.036.008,1.51,1.51,0,0,1,.2-.762,1.518,1.518,0,0,1,2.832.754Zm-.21,0a1.328,1.328,0,0,0-.653-1.137,1.271,1.271,0,0,0-.65-.176,1.3,1.3,0,0,0-.656.176,1.281,1.281,0,0,0-.481.483,1.3,1.3,0,0,0-.175.659,1.3,1.3,0,0,0,.657,1.133,1.3,1.3,0,0,0,.655.176,1.273,1.273,0,0,0,.65-.177,1.313,1.313,0,0,0,.653-1.137Zm-1.939-.885h.729a.951.951,0,0,1,.368.051.411.411,0,0,1,.182.167.515.515,0,0,1,.071.271.49.49,0,0,1-.05.23.5.5,0,0,1-.168.157.339.339,0,0,1,.159.134.6.6,0,0,1,.04.262v.2a.409.409,0,0,0,.062.232l.029.047h-.31a1.5,1.5,0,0,1-.041-.258l-.014-.215a.377.377,0,0,0-.038-.166.168.168,0,0,0-.085-.07.72.72,0,0,0-.219-.021h-.437v.731h-.277Zm.277.251v.518h.428a.541.541,0,0,0,.265-.045.235.235,0,0,0,.1-.216.24.24,0,0,0-.074-.2.447.447,0,0,0-.276-.061Z" transform="translate(-394.297 -42.593)" fill="#231f20"/>
      </g>
    </g>
  </g>
</svg>